<svg width="35" height="35" viewBox="0 0 35 35" fill="none" xmlns="http://www.w3.org/2000/svg">
<path d="M13.0121 6.25C14.6788 6.25 14.6788 8.75 13.0121 8.75L12.3154 8.7561C10.4663 8.79116 9.63835 8.98167 8.78686 9.43706C7.98617 9.86527 7.36527 10.4862 6.93706 11.2869C6.48167 12.1383 6.29116 12.9663 6.2561 14.8154L6.25 15.5121V21.9879C6.25 24.3392 6.4281 25.2615 6.93706 26.2131C7.36527 27.0138 7.98617 27.6347 8.78686 28.0629C9.63835 28.5183 10.4663 28.7088 12.3154 28.7439L13.0121 28.75H21.9879C24.3392 28.75 25.2615 28.5719 26.2131 28.0629C27.0138 27.6347 27.6347 27.0138 28.0629 26.2131C28.5183 25.3617 28.7088 24.5337 28.7439 22.6846L28.75 21.9879V15.5121L28.7439 14.8154C28.7088 12.9663 28.5183 12.1383 28.0629 11.2869C27.6347 10.4862 27.0138 9.86527 26.2131 9.43706C25.3617 8.98167 24.5337 8.79116 22.6846 8.7561L21.9879 8.75L21.8214 8.74129C20.3767 8.5863 20.3767 6.4137 21.8214 6.25871L21.9879 6.25H22.5L22.5887 6.25375L22.8042 6.25868C24.8647 6.30568 26.0301 6.54896 27.1771 7.12132L27.3921 7.23252C28.6285 7.89373 29.6063 8.8715 30.2675 10.1079C30.9582 11.3995 31.222 12.6451 31.2479 15.0928L31.25 15.5121V21.9879C31.25 24.7166 30.9966 26.0288 30.2675 27.3921C29.6063 28.6285 28.6285 29.6063 27.3921 30.2675C26.1005 30.9582 24.8549 31.222 22.4072 31.2479L13.0121 31.25C10.2834 31.25 8.97122 30.9966 7.60786 30.2675C6.3715 29.6063 5.39373 28.6285 4.73252 27.3921C4.04177 26.1005 3.77799 24.8549 3.75214 22.4072L3.75 15.5121C3.75 12.7834 4.00339 11.4712 4.73252 10.1079C5.39373 8.8715 6.3715 7.89373 7.60786 7.23252C8.82771 6.58014 10.0066 6.30862 12.1958 6.25868L12.41 6.25375L12.5 6.25H13.0121ZM18.75 21.25C19.4404 21.25 20 21.8096 20 22.5C20 23.1904 19.4404 23.75 18.75 23.75H11.25C10.5596 23.75 10 23.1904 10 22.5C10 21.8096 10.5596 21.25 11.25 21.25H18.75ZM23.75 15C24.4404 15 25 15.5596 25 16.25C25 16.9404 24.4404 17.5 23.75 17.5H11.25C10.5596 17.5 10 16.9404 10 16.25C10 15.5596 10.5596 15 11.25 15H23.75ZM17.5 3.75C18.1904 3.75 18.75 4.30964 18.75 5V10C18.75 10.6904 18.1904 11.25 17.5 11.25C16.8096 11.25 16.25 10.6904 16.25 10V5C16.25 4.30964 16.8096 3.75 17.5 3.75Z" fill="#499BFF"/>
</svg>
