<svg width="35" height="33" viewBox="0 0 35 33" fill="none" xmlns="http://www.w3.org/2000/svg">
<path fill-rule="evenodd" clip-rule="evenodd" d="M13.1015 5.48967L13.1177 5.43623C13.1927 5.19237 13.2766 4.96284 13.3702 4.74784C13.3827 4.71912 13.3954 4.69067 13.4082 4.66247C14.0162 3.32764 15.0125 2.57451 16.5602 2.45254L16.8418 2.4375L18.8964 2.43873C20.683 2.4916 21.8448 3.42611 22.4573 5.18779L22.5543 5.48905L22.6294 5.75877C22.6567 5.86265 22.6907 5.97325 22.7306 6.08811L22.8154 6.31222L22.8657 6.33612L22.9677 6.30406L23.1654 6.23208L23.3959 6.1367C23.4919 6.09421 23.5869 6.05403 23.6809 6.01617L23.7425 5.99163C23.9534 5.90861 24.1591 5.8374 24.36 5.77811C24.3946 5.76791 24.429 5.75806 24.4633 5.74856C26.048 5.30958 27.3281 5.62543 28.4059 6.75148L28.591 6.95514L29.8042 8.3846C30.8854 9.73789 30.8526 11.1844 29.798 12.7456L29.6128 13.0069L29.4396 13.2321C29.3704 13.3195 29.2999 13.4164 29.2297 13.5205L29.1249 13.6818L29.0752 13.7625L29.0811 13.7906L29.2167 13.8757L29.4038 13.9831L29.6307 14.1003C31.6854 15.0972 32.5335 16.4081 32.2063 18.2293L32.1515 18.4929L31.7905 19.9811C31.5566 20.9441 31.373 21.4 30.6504 22.0256C30.1274 22.4783 29.5496 22.733 28.8513 22.8678L28.8324 22.8714C28.5989 22.9157 28.3519 22.9467 28.0891 22.9673L27.7637 22.9875L27.4704 22.9963C27.4417 22.9968 27.4124 22.9976 27.3826 22.9987L27.3722 22.9991C27.2872 23.0024 27.1982 23.0082 27.1062 23.0163L26.8387 23.0465L26.8582 23.2467L26.8779 23.3814L26.9256 23.6328C27.042 24.1549 27.0982 24.636 27.0921 25.078L27.0918 25.0976C27.0674 26.4619 26.4467 27.4535 25.1685 28.1354L24.9182 28.2611L23.1802 29.0634C21.6474 29.7188 20.2516 29.4434 18.9574 28.3041C18.9192 28.2705 18.8811 28.2361 18.8431 28.201C18.7993 28.1606 18.7556 28.1191 18.712 28.0766L18.4859 27.8463L18.2941 27.6351C18.2193 27.5505 18.1349 27.4625 18.043 27.3732L17.8996 27.2384L17.8262 27.1738L17.6906 27.2964L17.5353 27.4484L17.3612 27.6351C15.9524 29.2293 14.4654 29.8016 12.6631 29.1352L12.4035 29.0315L10.8482 28.3129L10.3863 28.0882C9.6821 27.7226 9.28694 27.3724 8.90078 26.5972C8.63601 26.0656 8.5321 25.5402 8.54627 24.9537L8.54696 24.9283C8.55612 24.6219 8.59715 24.2986 8.66401 23.949L8.72971 23.6328L8.73134 23.6254C8.7542 23.5219 8.77422 23.4099 8.79102 23.2918L8.81812 23.0507L8.8122 23.0451L8.65885 23.0256L8.44216 23.0071L8.18495 22.9963C7.64559 22.9871 7.15761 22.9348 6.71951 22.8376L6.70031 22.8333C5.27614 22.5117 4.38219 21.7104 3.96547 20.3558L3.89299 20.0956L3.4617 18.3052C3.11398 16.6383 3.81041 15.3519 5.47815 14.3881L5.76509 14.2305L6.02464 14.1003C6.12636 14.0509 6.23356 13.9937 6.34383 13.9299L6.57275 13.7878L6.57867 13.7611L6.48615 13.6094L6.36662 13.4333L6.21577 13.2321C6.14983 13.1488 6.08667 13.066 6.0263 12.9837C5.91806 12.8361 5.81877 12.69 5.72847 12.5454C4.80958 11.0736 4.82171 9.74856 5.80667 8.44532L5.97771 8.23082L7.1962 6.80542C8.36377 5.51869 9.85881 5.24842 11.6844 5.90451L11.9917 6.02242L12.2594 6.1367C12.3601 6.18128 12.4703 6.22519 12.5876 6.2675L12.7882 6.33472L12.8414 6.31081L12.8912 6.18616L12.9579 5.99217L13.0259 5.75877C13.05 5.66725 13.0752 5.57755 13.1015 5.48967ZM20.3104 6.85582C20.3175 6.8764 20.3249 6.89688 20.3327 6.91727L20.4175 7.14138C20.6406 7.7309 21.0927 8.2156 21.6799 8.49474L21.7302 8.51865C22.3308 8.80413 23.0249 8.85193 23.662 8.65171L23.7641 8.61965C23.8015 8.60788 23.8387 8.59528 23.8756 8.58186L24.0732 8.50988C24.1085 8.49701 24.1436 8.4834 24.1783 8.46904L24.4088 8.37366C24.4284 8.36554 24.4479 8.35719 24.4673 8.34861C24.5376 8.31751 24.6055 8.28883 24.6711 8.26241C24.8591 8.18666 25.026 8.13047 25.1731 8.08974C25.6299 7.96318 25.8651 7.99244 25.9734 8.0198C26.0696 8.04409 26.2456 8.11096 26.5059 8.37762L26.6379 8.52278L27.7963 9.88767C28.0307 10.1886 28.0528 10.3678 28.0521 10.4715C28.0512 10.6078 28.0018 10.905 27.6694 11.4031L27.5294 11.6006L27.3943 11.7762C27.286 11.9139 27.183 12.0566 27.0863 12.2L27.0639 12.2339L26.959 12.3952L26.9454 12.4164L26.9268 12.4461L26.8771 12.5269C26.5591 13.0438 26.4516 13.6547 26.5752 14.2427L26.5811 14.2708C26.7154 14.9098 27.1119 15.4709 27.6821 15.8285L27.8176 15.9135C27.8459 15.9313 27.8746 15.9485 27.9037 15.9652L28.0908 16.0726C28.1239 16.0917 28.1575 16.11 28.1915 16.1275L28.4184 16.2447C28.4376 16.2547 28.457 16.2644 28.4766 16.2739C29.2526 16.6503 29.5303 16.9592 29.6266 17.1122C29.6875 17.2089 29.7678 17.3753 29.6976 17.7906L29.6583 17.9802L29.3064 19.4304C29.1938 19.8939 29.1443 19.9992 29.1285 20.0292C29.1285 20.0292 29.1264 20.0346 29.1124 20.0511C29.0939 20.0732 29.046 20.1259 28.9386 20.2189C28.8004 20.3385 28.6566 20.4198 28.3366 20.4804C28.22 20.5025 28.0773 20.5219 27.9003 20.5364L27.6411 20.5525L27.4051 20.5596L27.2841 20.563C27.1466 20.5681 27.0087 20.5771 26.8719 20.5891C26.8504 20.591 26.8289 20.5932 26.8075 20.5956L26.54 20.6258C25.1658 20.7807 24.1717 21.9549 24.2996 23.2719L24.3191 23.4721C24.3227 23.5098 24.3273 23.5473 24.3328 23.5848L24.3525 23.7195C24.3573 23.752 24.3628 23.7845 24.3689 23.8168L24.4166 24.0682C24.4212 24.0924 24.4262 24.1166 24.4316 24.1407C24.5172 24.5247 24.5454 24.8215 24.5424 25.0461C24.5378 25.3811 24.4653 25.5361 24.418 25.6116C24.3709 25.6865 24.2593 25.825 23.9495 25.9942L23.7706 26.084L22.1106 26.8503C21.764 26.9937 21.5712 26.9834 21.4617 26.9633C21.3311 26.9392 21.0727 26.8526 20.6849 26.5111C20.6413 26.4728 20.5964 26.4314 20.5501 26.3868L20.379 26.2126L20.2293 26.0478C20.1115 25.9152 19.9872 25.7866 19.8607 25.6637L19.8309 25.6352L19.6876 25.5005C19.6676 25.4817 19.6474 25.4633 19.6268 25.4452L19.5534 25.3806C18.5674 24.5128 17.0469 24.5228 16.0735 25.4034L15.9379 25.526C15.9138 25.5478 15.8901 25.57 15.867 25.5927L15.7116 25.7446C15.6842 25.7715 15.6573 25.799 15.6312 25.8271L15.4571 26.0138C15.4423 26.0298 15.4277 26.0459 15.4133 26.0622C14.8789 26.6668 14.5094 26.8679 14.3162 26.9326C14.192 26.9742 14.0041 27.0128 13.6095 26.8714L13.4505 26.808L11.9815 26.1292L11.5767 25.9323C11.4771 25.8797 11.4198 25.8443 11.3867 25.8219C11.3697 25.8103 11.3599 25.8027 11.3552 25.7989C11.3508 25.7954 11.3488 25.7935 11.3488 25.7935C11.3488 25.7935 11.3471 25.7918 11.3438 25.7879C11.3403 25.7837 11.3331 25.7747 11.3221 25.7588C11.2994 25.7262 11.2597 25.6629 11.2031 25.5493C11.1259 25.3943 11.0884 25.2502 11.0959 24.9979C11.1003 24.8511 11.1209 24.6607 11.1692 24.4043L11.2279 24.1221C11.2643 23.9559 11.294 23.7873 11.3177 23.6205C11.321 23.5977 11.3239 23.575 11.3264 23.5522L11.3535 23.311C11.4362 22.5754 11.1649 21.8438 10.6161 21.3222L10.6102 21.3166C10.2148 20.9408 9.70149 20.6993 9.14884 20.6289L8.99548 20.6094C8.9589 20.6047 8.92223 20.6008 8.88547 20.5977L8.66878 20.5792C8.6304 20.5759 8.59194 20.5735 8.55344 20.5719L8.29623 20.5612C8.27444 20.5602 8.25263 20.5596 8.23081 20.5592C7.83225 20.5524 7.52681 20.5144 7.29646 20.4633C6.93171 20.3823 6.77839 20.2749 6.70795 20.2116C6.64001 20.1505 6.52325 20.0175 6.41979 19.6933L6.36826 19.5084L5.95657 17.7993C5.88532 17.4341 5.94722 17.2645 5.99641 17.1702C6.06124 17.0458 6.24492 16.7972 6.77592 16.4866L6.99337 16.3671L7.19608 16.2654C7.35527 16.1876 7.51211 16.1032 7.66393 16.0154C7.68715 16.002 7.71015 15.9882 7.73291 15.974L7.96183 15.8319C8.52938 15.4795 8.9271 14.9259 9.06737 14.293L9.0733 14.2663C9.20456 13.6741 9.10061 13.0565 8.78168 12.5335L8.68916 12.3818C8.66863 12.3481 8.64726 12.3149 8.62507 12.2823L8.50554 12.1062C8.48427 12.0749 8.46225 12.0441 8.4395 12.0137L8.28864 11.8124C8.27574 11.7952 8.26261 11.7782 8.24925 11.7613C7.72678 11.1013 7.62146 10.7111 7.60583 10.5368C7.59598 10.427 7.59968 10.2426 7.85766 9.89415L7.97959 9.74125L9.14303 8.38024C9.40421 8.09946 9.58824 8.03723 9.70511 8.01435C9.85534 7.98495 10.1788 7.971 10.7635 8.17769L10.9965 8.26711L11.2057 8.35639C11.3637 8.42579 11.5255 8.48965 11.6871 8.54794C11.7059 8.55475 11.7249 8.56135 11.744 8.56773L11.9445 8.63494C12.5751 8.84628 13.2674 8.81255 13.8722 8.54099L13.9255 8.51709C14.5232 8.24875 14.9887 7.76925 15.224 7.17949L15.2737 7.05484C15.2879 7.01922 15.3013 6.98329 15.3137 6.94707L15.3804 6.75309C15.3925 6.71794 15.4037 6.68254 15.4141 6.64691L15.4822 6.41351C15.4881 6.3934 15.4937 6.37323 15.499 6.35298C15.5166 6.28607 15.5346 6.22196 15.553 6.16055C15.6153 5.95248 15.6808 5.77912 15.7462 5.63547C15.9161 5.26247 16.0717 5.11706 16.1582 5.05525C16.2331 5.00174 16.3869 4.9158 16.7418 4.88415L16.9122 4.87504L18.8496 4.8762C19.248 4.89275 19.4152 4.991 19.505 5.06103C19.62 5.15075 19.8321 5.37642 20.0294 5.9337L20.1027 6.16118L20.1612 6.37125C20.2047 6.53459 20.2553 6.69716 20.3104 6.85582Z" fill="#499BFF"/>
<path fill-rule="evenodd" clip-rule="evenodd" d="M17.8245 18.6875C19.2328 18.6875 20.3745 17.5962 20.3745 16.25C20.3745 14.9038 19.2328 13.8125 17.8245 13.8125C16.4162 13.8125 15.2745 14.9038 15.2745 16.25C15.2745 17.5962 16.4162 18.6875 17.8245 18.6875ZM17.8245 21.125C20.6412 21.125 22.9245 18.9424 22.9245 16.25C22.9245 13.5576 20.6412 11.375 17.8245 11.375C15.0079 11.375 12.7245 13.5576 12.7245 16.25C12.7245 18.9424 15.0079 21.125 17.8245 21.125Z" fill="#499BFF"/>
</svg>
