<svg width="34" height="32" viewBox="0 0 34 32" fill="none" xmlns="http://www.w3.org/2000/svg">
<path fill-rule="evenodd" clip-rule="evenodd" d="M30.7021 16C30.7021 8.48892 24.3865 2.39999 16.5958 2.39999C8.80502 2.39999 2.48938 8.48892 2.48938 16C2.48938 23.5111 8.80502 29.6 16.5958 29.6C24.3865 29.6 30.7021 23.5111 30.7021 16ZM4.97874 16C4.97874 9.8144 10.1799 4.79999 16.5958 4.79999C23.0117 4.79999 28.2128 9.8144 28.2128 16C28.2128 22.1856 23.0117 27.2 16.5958 27.2C10.1799 27.2 4.97874 22.1856 4.97874 16Z" fill="#499BFF"/>
<path fill-rule="evenodd" clip-rule="evenodd" d="M16.1809 9.59999C16.8683 9.59999 17.4256 10.1373 17.4256 10.8V16.0584L22.546 18.5267C23.1609 18.8231 23.4101 19.5439 23.1027 20.1367C22.7952 20.7294 22.0476 20.9697 21.4327 20.6733L15.6242 17.8733C15.2026 17.67 14.9362 17.2545 14.9362 16.8V10.8C14.9362 10.1373 15.4935 9.59999 16.1809 9.59999Z" fill="#499BFF"/>
</svg>
